<svg width="574" height="576" viewBox="0 0 574 576" fill="none" xmlns="http://www.w3.org/2000/svg">
<path d="M534 186C534 174.954 542.954 166 554 166C565.046 166 574 174.954 574 186V389C574 400.046 565.046 409 554 409C542.954 409 534 400.046 534 389V186Z" fill="url(#paint0_linear_29_86)"/>
<path d="M445 140C445 128.954 453.954 120 465 120C476.046 120 485 128.954 485 140V436C485 447.046 476.046 456 465 456C453.954 456 445 447.046 445 436V140Z" fill="url(#paint1_linear_29_86)"/>
<path d="M356 186C356 174.954 364.954 166 376 166C387.046 166 396 174.954 396 186V389C396 400.046 387.046 409 376 409C364.954 409 356 400.046 356 389V186Z" fill="url(#paint2_linear_29_86)"/>
<path d="M267 66C267 54.9543 275.954 46 287 46C298.046 46 307 54.9543 307 66V509C307 520.046 298.046 529 287 529C275.954 529 267 520.046 267 509V66Z" fill="url(#paint3_linear_29_86)"/>
<path d="M178 20C178 8.9543 186.954 0 198 0C209.046 0 218 8.95431 218 20V556C218 567.046 209.046 576 198 576C186.954 576 178 567.046 178 556V20Z" fill="url(#paint4_linear_29_86)"/>
<path d="M89 66C89 54.9543 97.9543 46 109 46C120.046 46 129 54.9543 129 66V509C129 520.046 120.046 529 109 529C97.9543 529 89 520.046 89 509V66Z" fill="url(#paint5_linear_29_86)"/>
<path d="M0 186C0 174.954 8.95431 166 20 166C31.0457 166 40 174.954 40 186V389C40 400.046 31.0457 409 20 409C8.95431 409 0 400.046 0 389V186Z" fill="url(#paint6_linear_29_86)"/>
<defs>
<linearGradient id="paint0_linear_29_86" x1="140.5" y1="146" x2="455.026" y2="437.548" gradientUnits="userSpaceOnUse">
<stop stop-color="#655CFE"/>
<stop offset="0.333333" stop-color="#FF4FA6"/>
<stop offset="0.552083" stop-color="#FF4FA6"/>
<stop offset="1" stop-color="#FDB52A"/>
</linearGradient>
<linearGradient id="paint1_linear_29_86" x1="140.5" y1="146" x2="455.026" y2="437.548" gradientUnits="userSpaceOnUse">
<stop stop-color="#655CFE"/>
<stop offset="0.333333" stop-color="#FF4FA6"/>
<stop offset="0.552083" stop-color="#FF4FA6"/>
<stop offset="1" stop-color="#FDB52A"/>
</linearGradient>
<linearGradient id="paint2_linear_29_86" x1="140.5" y1="146" x2="455.026" y2="437.548" gradientUnits="userSpaceOnUse">
<stop stop-color="#655CFE"/>
<stop offset="0.333333" stop-color="#FF4FA6"/>
<stop offset="0.552083" stop-color="#FF4FA6"/>
<stop offset="1" stop-color="#FDB52A"/>
</linearGradient>
<linearGradient id="paint3_linear_29_86" x1="140.5" y1="146" x2="455.026" y2="437.548" gradientUnits="userSpaceOnUse">
<stop stop-color="#655CFE"/>
<stop offset="0.333333" stop-color="#FF4FA6"/>
<stop offset="0.552083" stop-color="#FF4FA6"/>
<stop offset="1" stop-color="#FDB52A"/>
</linearGradient>
<linearGradient id="paint4_linear_29_86" x1="140.5" y1="146" x2="455.026" y2="437.548" gradientUnits="userSpaceOnUse">
<stop stop-color="#655CFE"/>
<stop offset="0.333333" stop-color="#FF4FA6"/>
<stop offset="0.552083" stop-color="#FF4FA6"/>
<stop offset="1" stop-color="#FDB52A"/>
</linearGradient>
<linearGradient id="paint5_linear_29_86" x1="140.5" y1="146" x2="455.026" y2="437.548" gradientUnits="userSpaceOnUse">
<stop stop-color="#655CFE"/>
<stop offset="0.333333" stop-color="#FF4FA6"/>
<stop offset="0.552083" stop-color="#FF4FA6"/>
<stop offset="1" stop-color="#FDB52A"/>
</linearGradient>
<linearGradient id="paint6_linear_29_86" x1="140.5" y1="146" x2="455.026" y2="437.548" gradientUnits="userSpaceOnUse">
<stop stop-color="#655CFE"/>
<stop offset="0.333333" stop-color="#FF4FA6"/>
<stop offset="0.552083" stop-color="#FF4FA6"/>
<stop offset="1" stop-color="#FDB52A"/>
</linearGradient>
</defs>
</svg>
