<svg width="2220" height="576" viewBox="0 0 2220 576" fill="none" xmlns="http://www.w3.org/2000/svg">
<path d="M903 367.2L991.8 126H1022.2L918.6 406H887.4L783.4 126H814.2L903 367.2ZM1130.64 410.8C1111.71 410.8 1094.24 406.133 1078.24 396.8C1062.24 387.467 1049.57 374.8 1040.24 358.8C1030.91 342.533 1026.24 324.933 1026.24 306C1026.24 287.067 1030.91 269.733 1040.24 254C1049.57 238 1062.24 225.333 1078.24 216C1094.24 206.667 1111.71 202 1130.64 202C1149.57 202 1167.04 206.667 1183.04 216C1199.04 225.333 1211.71 238 1221.04 254C1230.37 269.733 1235.04 287.067 1235.04 306C1235.04 324.933 1230.37 342.533 1221.04 358.8C1211.71 374.8 1199.04 387.467 1183.04 396.8C1167.04 406.133 1149.57 410.8 1130.64 410.8ZM1130.24 383.6C1144.37 383.6 1157.31 380.133 1169.04 373.2C1181.04 366.267 1190.51 356.933 1197.44 345.2C1204.37 333.2 1207.84 320.133 1207.84 306C1207.84 291.867 1204.37 278.933 1197.44 267.2C1190.51 255.2 1181.04 245.733 1169.04 238.8C1157.31 231.867 1144.37 228.4 1130.24 228.4C1116.11 228.4 1103.17 231.867 1091.44 238.8C1079.71 245.733 1070.37 255.2 1063.44 267.2C1056.51 278.933 1053.04 291.867 1053.04 306C1053.04 320.133 1056.51 333.2 1063.44 345.2C1070.37 356.933 1079.71 366.267 1091.44 373.2C1103.17 380.133 1116.11 383.6 1130.24 383.6ZM1302.79 370.4C1302.79 374.933 1303.72 378.133 1305.59 380C1307.72 381.6 1310.92 382.4 1315.19 382.4C1318.92 382.4 1323.19 382 1327.99 381.2V406C1320.79 407.333 1314.39 408 1308.79 408C1298.66 408 1290.66 405.333 1284.79 400C1278.92 394.667 1275.99 385.2 1275.99 371.6V126H1302.79V370.4ZM1518.07 206H1545.27V406H1518.07V378.4C1511.13 387.733 1502.2 395.467 1491.27 401.6C1480.33 407.467 1468.33 410.4 1455.27 410.4C1443.53 410.4 1431.4 408 1418.87 403.2C1406.6 398.4 1395.93 389.733 1386.87 377.2C1378.07 364.4 1373.67 347.2 1373.67 325.6V206H1400.87V325.6C1400.87 347.2 1406.87 362.667 1418.87 372C1430.87 381.333 1444.6 386 1460.07 386C1475.27 386 1488.73 380.8 1500.47 370.4C1512.2 359.733 1518.07 342.133 1518.07 317.6V206ZM1703.04 201.6C1721.97 201.6 1738.77 206.267 1753.44 215.6C1768.37 224.667 1779.84 237.2 1787.84 253.2C1795.84 269.2 1799.84 286.933 1799.84 306.4C1799.84 325.867 1795.7 343.6 1787.44 359.6C1779.44 375.333 1768.1 387.867 1753.44 397.2C1738.77 406.267 1721.97 410.8 1703.04 410.8C1685.97 410.8 1670.77 406.667 1657.44 398.4C1644.37 389.867 1633.84 378.533 1625.84 364.4V406H1599.04V126H1625.84V248.4C1633.84 234 1644.37 222.667 1657.44 214.4C1670.77 205.867 1685.97 201.6 1703.04 201.6ZM1702.64 385.2C1716.5 385.2 1728.77 381.733 1739.44 374.8C1750.1 367.6 1758.37 358 1764.24 346C1770.1 334 1773.04 320.8 1773.04 306.4C1773.04 292 1770.1 278.8 1764.24 266.8C1758.37 254.8 1750.1 245.333 1739.44 238.4C1728.77 231.2 1716.5 227.6 1702.64 227.6C1688.5 227.6 1675.57 231.067 1663.84 238C1652.1 244.933 1642.9 254.4 1636.24 266.4C1629.57 278.133 1626.24 291.333 1626.24 306C1626.24 320.667 1629.57 334.133 1636.24 346.4C1642.9 358.4 1652.1 367.867 1663.84 374.8C1675.57 381.733 1688.5 385.2 1702.64 385.2ZM1850.3 406V206H1877.5V406H1850.3ZM1864.3 149.6C1859.5 149.6 1855.37 147.867 1851.9 144.4C1848.44 140.933 1846.7 136.8 1846.7 132C1846.7 127.2 1848.44 123.067 1851.9 119.6C1855.37 116.133 1859.5 114.4 1864.3 114.4C1869.1 114.4 1873.1 116.133 1876.3 119.6C1879.77 123.067 1881.5 127.2 1881.5 132C1881.5 136.8 1879.77 140.933 1876.3 144.4C1873.1 147.867 1869.1 149.6 1864.3 149.6ZM1964.12 370.4C1964.12 374.933 1965.05 378.133 1966.92 380C1969.05 381.6 1972.25 382.4 1976.52 382.4C1980.25 382.4 1984.52 382 1989.32 381.2V406C1982.12 407.333 1975.72 408 1970.12 408C1959.99 408 1951.99 405.333 1946.12 400C1940.25 394.667 1937.32 385.2 1937.32 371.6V126H1964.12V370.4ZM2120.48 201.2C2139.95 201.2 2157.15 206 2172.08 215.6C2187.28 225.2 2199.02 238.133 2207.28 254.4C2215.55 270.4 2219.68 287.733 2219.68 306.4C2219.68 307.733 2219.42 311.333 2218.88 317.2H2043.68C2044.75 330 2048.75 341.733 2055.68 352.4C2062.62 362.8 2071.95 371.067 2083.68 377.2C2095.42 383.333 2108.62 386.4 2123.28 386.4C2136.62 386.4 2149.28 383.333 2161.28 377.2C2173.55 370.8 2182.48 362.933 2188.08 353.6L2209.68 366.4C2200.88 380.267 2188.88 391.2 2173.68 399.2C2158.75 406.933 2141.68 410.8 2122.48 410.8C2101.68 410.8 2083.15 406.267 2066.88 397.2C2050.88 388.133 2038.35 375.6 2029.28 359.6C2020.48 343.6 2016.08 325.733 2016.08 306C2016.08 286.267 2020.48 268.533 2029.28 252.8C2038.08 236.8 2050.35 224.267 2066.08 215.2C2082.08 205.867 2100.22 201.2 2120.48 201.2ZM2194.08 294.4C2191.42 273.067 2183.55 256.267 2170.48 244C2157.68 231.733 2140.88 225.6 2120.08 225.6C2105.42 225.6 2092.22 228.933 2080.48 235.6C2068.75 242 2059.55 250.533 2052.88 261.2C2046.48 271.6 2043.28 282.667 2043.28 294.4H2194.08Z" fill="#1F2937"/>
<path d="M534 186C534 174.954 542.954 166 554 166C565.046 166 574 174.954 574 186V389C574 400.046 565.046 409 554 409C542.954 409 534 400.046 534 389V186Z" fill="url(#paint0_linear_23_36)"/>
<path d="M445 140C445 128.954 453.954 120 465 120C476.046 120 485 128.954 485 140V436C485 447.046 476.046 456 465 456C453.954 456 445 447.046 445 436V140Z" fill="url(#paint1_linear_23_36)"/>
<path d="M356 186C356 174.954 364.954 166 376 166C387.046 166 396 174.954 396 186V389C396 400.046 387.046 409 376 409C364.954 409 356 400.046 356 389V186Z" fill="url(#paint2_linear_23_36)"/>
<path d="M267 66C267 54.9543 275.954 46 287 46C298.046 46 307 54.9543 307 66V509C307 520.046 298.046 529 287 529C275.954 529 267 520.046 267 509V66Z" fill="url(#paint3_linear_23_36)"/>
<path d="M178 20C178 8.9543 186.954 0 198 0C209.046 0 218 8.95431 218 20V556C218 567.046 209.046 576 198 576C186.954 576 178 567.046 178 556V20Z" fill="url(#paint4_linear_23_36)"/>
<path d="M89 66C89 54.9543 97.9543 46 109 46C120.046 46 129 54.9543 129 66V509C129 520.046 120.046 529 109 529C97.9543 529 89 520.046 89 509V66Z" fill="url(#paint5_linear_23_36)"/>
<path d="M0 186C0 174.954 8.95431 166 20 166C31.0457 166 40 174.954 40 186V389C40 400.046 31.0457 409 20 409C8.95431 409 0 400.046 0 389V186Z" fill="url(#paint6_linear_23_36)"/>
<defs>
<linearGradient id="paint0_linear_23_36" x1="140.5" y1="146" x2="455.026" y2="437.548" gradientUnits="userSpaceOnUse">
<stop stop-color="#655CFE"/>
<stop offset="0.333333" stop-color="#FF4FA6"/>
<stop offset="0.552083" stop-color="#FF4FA6"/>
<stop offset="1" stop-color="#FDB52A"/>
</linearGradient>
<linearGradient id="paint1_linear_23_36" x1="140.5" y1="146" x2="455.026" y2="437.548" gradientUnits="userSpaceOnUse">
<stop stop-color="#655CFE"/>
<stop offset="0.333333" stop-color="#FF4FA6"/>
<stop offset="0.552083" stop-color="#FF4FA6"/>
<stop offset="1" stop-color="#FDB52A"/>
</linearGradient>
<linearGradient id="paint2_linear_23_36" x1="140.5" y1="146" x2="455.026" y2="437.548" gradientUnits="userSpaceOnUse">
<stop stop-color="#655CFE"/>
<stop offset="0.333333" stop-color="#FF4FA6"/>
<stop offset="0.552083" stop-color="#FF4FA6"/>
<stop offset="1" stop-color="#FDB52A"/>
</linearGradient>
<linearGradient id="paint3_linear_23_36" x1="140.5" y1="146" x2="455.026" y2="437.548" gradientUnits="userSpaceOnUse">
<stop stop-color="#655CFE"/>
<stop offset="0.333333" stop-color="#FF4FA6"/>
<stop offset="0.552083" stop-color="#FF4FA6"/>
<stop offset="1" stop-color="#FDB52A"/>
</linearGradient>
<linearGradient id="paint4_linear_23_36" x1="140.5" y1="146" x2="455.026" y2="437.548" gradientUnits="userSpaceOnUse">
<stop stop-color="#655CFE"/>
<stop offset="0.333333" stop-color="#FF4FA6"/>
<stop offset="0.552083" stop-color="#FF4FA6"/>
<stop offset="1" stop-color="#FDB52A"/>
</linearGradient>
<linearGradient id="paint5_linear_23_36" x1="140.5" y1="146" x2="455.026" y2="437.548" gradientUnits="userSpaceOnUse">
<stop stop-color="#655CFE"/>
<stop offset="0.333333" stop-color="#FF4FA6"/>
<stop offset="0.552083" stop-color="#FF4FA6"/>
<stop offset="1" stop-color="#FDB52A"/>
</linearGradient>
<linearGradient id="paint6_linear_23_36" x1="140.5" y1="146" x2="455.026" y2="437.548" gradientUnits="userSpaceOnUse">
<stop stop-color="#655CFE"/>
<stop offset="0.333333" stop-color="#FF4FA6"/>
<stop offset="0.552083" stop-color="#FF4FA6"/>
<stop offset="1" stop-color="#FDB52A"/>
</linearGradient>
</defs>
</svg>
